<?xml version="1.0" encoding="utf-8"?>
<!-- Generator: Adobe Illustrator 21.1.0, SVG Export Plug-In . SVG Version: 6.00 Build 0)  -->
<svg version="1.1" class="mainIcon" xmlns="http://www.w3.org/2000/svg" xmlns:xlink="http://www.w3.org/1999/xlink" x="0px" y="0px"
	 viewBox="0 0 100 100" style="enable-background:new 0 0 100 100;" xml:space="preserve">
<style type="text/css">
	.st0{fill:#FFFFFF;}
</style>
<g id="details">
	<circle id="black-border" cx="50" cy="50" r="50"/>
	<circle id="white-border" class="st0" cx="50" cy="50" r="47.5"/>
</g>
<g id="icon">
	<circle id="background-circle" cx="50" cy="50" r="40"/>
	<g id="share">
		<g id="man3">
			<g id="head3">
				<path id="XMLID_31_" class="st0" d="M55.3,32.1c0,0.1,0,0.2,0,0.3c0,0.1,0,0.2,0,0.3c0,0.1,0,0.3-0.1,0.4c0,0.1-0.1,0.3-0.1,0.4
					c-0.1,0.3-0.2,0.5-0.3,0.8c0,0,0,0.1,0,0.1c-0.1,0.1-0.1,0.2-0.2,0.4c0,0,0,0.1-0.1,0.1c-0.2,0.4-0.6,0.8-0.9,1.1
					c0,0-0.1,0.1-0.1,0.1c-0.1,0.1-0.1,0.1-0.2,0.2c0,0-0.1,0.1-0.1,0.1c-0.1,0.1-0.2,0.1-0.3,0.2c0,0,0,0,0,0
					c-0.1,0.1-0.3,0.2-0.4,0.2c-0.1,0.1-0.2,0.1-0.4,0.2c0,0,0,0,0,0c-0.2,0.1-0.5,0.2-0.8,0.3c-0.1,0-0.1,0-0.2,0
					c-0.3,0.1-0.5,0.1-0.8,0.1c-0.1,0-0.2,0-0.3,0c0,0-0.1,0-0.1,0c0,0-0.1,0-0.1,0c-0.1,0-0.2,0-0.3,0c-0.3,0-0.6-0.1-0.8-0.1
					c-0.1,0-0.1,0-0.2,0c-0.3-0.1-0.5-0.2-0.8-0.3c0,0,0,0,0,0c-0.1-0.1-0.2-0.1-0.3-0.2c-0.1-0.1-0.3-0.2-0.4-0.3c0,0,0,0,0,0
					c-0.1-0.1-0.2-0.1-0.3-0.2c0,0-0.1-0.1-0.1-0.1c-0.1-0.1-0.1-0.1-0.2-0.2c-0.1-0.1-0.1-0.1-0.2-0.2c-0.3-0.3-0.6-0.7-0.8-1
					c0,0,0-0.1-0.1-0.1c-0.1-0.1-0.1-0.2-0.2-0.4c0,0,0-0.1,0-0.1c-0.1-0.2-0.2-0.5-0.3-0.8c0-0.1-0.1-0.3-0.1-0.4
					c0-0.1,0-0.3-0.1-0.4c0-0.1,0-0.2,0-0.3c0-0.1,0-0.2,0-0.3c0-0.1,0-0.2,0-0.3c0-0.1,0-0.1,0-0.2v0c0,0,0-0.1,0-0.1
					c0,0,0-0.1,0-0.1c0-0.1,0-0.2,0-0.3c0-0.1,0.1-0.3,0.1-0.4c0.1-0.3,0.2-0.5,0.3-0.8c0,0,0,0,0-0.1s0,0,0-0.1
					c0.1-0.1,0.1-0.2,0.2-0.4c0,0,0-0.1,0.1-0.1c0.2-0.4,0.6-0.8,0.9-1.1c0,0,0.1-0.1,0.1-0.1c0.1-0.1,0.1-0.1,0.2-0.2
					c0,0,0.1-0.1,0.1-0.1c0.1-0.1,0.2-0.1,0.3-0.2c0,0,0,0,0,0c0.2-0.2,0.5-0.3,0.8-0.4c0,0,0,0,0,0c0.2-0.1,0.5-0.2,0.8-0.3
					c0.1,0,0.1,0,0.2,0c0.3-0.1,0.5-0.1,0.8-0.1c0.1,0,0.2,0,0.3,0c0,0,0.1,0,0.1,0c0,0,0.1,0,0.1,0c0.1,0,0.2,0,0.3,0
					c0.3,0,0.6,0.1,0.8,0.1c0.1,0,0.1,0,0.2,0c0.3,0.1,0.5,0.2,0.8,0.3c0,0,0,0,0,0c0.3,0.1,0.5,0.3,0.8,0.4c0,0,0,0,0,0
					c0.1,0.1,0.2,0.1,0.3,0.2c0,0,0.1,0.1,0.1,0.1c0.1,0.1,0.1,0.1,0.2,0.2c0,0,0.1,0.1,0.1,0.1c0.4,0.3,0.7,0.7,0.9,1.1
					c0,0,0,0.1,0.1,0.1c0.1,0.1,0.1,0.2,0.2,0.4c0,0,0,0.1,0,0.1c0.1,0.2,0.2,0.5,0.3,0.8c0,0.1,0.1,0.3,0.1,0.4
					c0,0.1,0,0.3,0.1,0.4c0,0,0,0.1,0,0.1c0,0,0,0.1,0,0.1C55.3,31.9,55.3,32,55.3,32.1z"/>
				<path id="XMLID_60_" class="st0" d="M44.7,31.6C44.7,31.6,44.7,31.6,44.7,31.6L44.7,31.6L44.7,31.6
					C44.7,31.6,44.7,31.6,44.7,31.6z M44.6,31.6C44.6,31.6,44.6,31.6,44.6,31.6C44.6,31.6,44.7,31.6,44.6,31.6
					C44.7,31.6,44.7,31.6,44.6,31.6C44.7,31.6,44.6,31.6,44.6,31.6z"/>
				<path id="XMLID_28_" class="st0" d="M44.6,31.6C44.6,31.6,44.7,31.6,44.6,31.6C44.7,31.6,44.6,31.6,44.6,31.6
					C44.6,31.6,44.6,31.6,44.6,31.6z"/>
				
					<ellipse id="XMLID_27_" transform="matrix(0.5586 -0.8294 0.8294 0.5586 -6.5126 51.0512)" class="st0" cx="44.7" cy="31.6" rx="0" ry="0"/>
			</g>
			<path id="body3" class="st0" d="M58.8,42.5V48c0,0.1,0,0.1-0.1,0.1H41.3c-0.1,0-0.2,0-0.2-0.1v-5.5c0-0.1,0-0.2,0-0.3
				c0.1-1.3,0.6-2.5,1.4-3.4c0,0,0-0.1,0.1-0.1c0.4-0.4,0.9-0.8,1.4-1c0,0,0.1,0,0.1,0c0.1-0.1,0.3-0.1,0.4-0.2c0,0,0.1,0,0.1,0
				c0.1,0,0.3-0.1,0.4-0.1c0.2,0.2,0.4,0.3,0.5,0.5c0.5,0.4,1,0.7,1.6,0.9c0.1,0,0.2,0.1,0.3,0.1c0.4,0.2,0.8,0.3,1.3,0.4
				c0.4,0.1,0.8,0.1,1.3,0.1c0.5,0,1,0,1.4-0.1c0.1,0,0.1,0,0.2,0c0,0,0,0,0,0c0.1,0,0.2,0,0.3,0h0c0.2,0,0.5-0.2,0.7-0.3
				c0.1,0,0.2-0.1,0.3-0.2c0.4-0.2,0.8-0.4,1.2-0.7h0c0,0,0.1,0,0.1-0.1c0.3-0.2,0.5-0.4,0.7-0.6c2.2,0.5,3.8,2.5,3.9,4.9
				C58.8,42.3,58.8,42.4,58.8,42.5z"/>
		</g>
		<g id="man2">
			<g id="head2">
				<path id="XMLID_25_" class="st0" d="M40.1,57.2c0,0.1,0,0.2,0,0.3c0,0.1,0,0.2,0,0.3c0,0.1,0,0.3-0.1,0.4c0,0.1-0.1,0.3-0.1,0.4
					c-0.1,0.3-0.2,0.5-0.3,0.8c0,0,0,0.1,0,0.1c-0.1,0.1-0.1,0.2-0.2,0.4c0,0,0,0.1-0.1,0.1c-0.2,0.4-0.6,0.8-0.9,1.1
					c0,0-0.1,0.1-0.1,0.1c-0.1,0.1-0.1,0.1-0.2,0.2c0,0-0.1,0.1-0.1,0.1c-0.1,0.1-0.2,0.1-0.3,0.2c0,0,0,0,0,0
					c-0.1,0.1-0.3,0.2-0.4,0.2C37.3,61.9,37.1,62,37,62c0,0,0,0,0,0c-0.2,0.1-0.5,0.2-0.8,0.3c-0.1,0-0.1,0-0.2,0
					c-0.3,0.1-0.5,0.1-0.8,0.1c-0.1,0-0.2,0-0.3,0c0,0-0.1,0-0.1,0c0,0-0.1,0-0.1,0c-0.1,0-0.2,0-0.3,0c-0.3,0-0.6-0.1-0.8-0.1
					c-0.1,0-0.1,0-0.2,0c-0.3-0.1-0.5-0.2-0.8-0.3c0,0,0,0,0,0c-0.1-0.1-0.2-0.1-0.3-0.2c-0.1-0.1-0.3-0.2-0.4-0.3c0,0,0,0,0,0
					c-0.1-0.1-0.2-0.1-0.3-0.2c0,0-0.1-0.1-0.1-0.1c-0.1-0.1-0.1-0.1-0.2-0.2c-0.1-0.1-0.1-0.1-0.2-0.2c-0.3-0.3-0.6-0.7-0.8-1
					c0,0,0-0.1-0.1-0.1c-0.1-0.1-0.1-0.2-0.2-0.4c0,0,0-0.1,0-0.1c-0.1-0.2-0.2-0.5-0.3-0.8c0-0.1-0.1-0.3-0.1-0.4
					c0-0.1,0-0.3-0.1-0.4c0-0.1,0-0.2,0-0.3c0-0.1,0-0.2,0-0.3c0-0.1,0-0.2,0-0.3c0-0.1,0-0.1,0-0.2v0c0,0,0-0.1,0-0.1
					c0,0,0-0.1,0-0.1c0-0.1,0-0.2,0-0.3c0-0.1,0.1-0.3,0.1-0.4c0.1-0.3,0.2-0.5,0.3-0.8c0,0,0,0,0-0.1c0,0,0,0,0-0.1
					c0.1-0.1,0.1-0.2,0.2-0.4c0,0,0-0.1,0.1-0.1c0.2-0.4,0.6-0.8,0.9-1.1c0,0,0.1-0.1,0.1-0.1c0.1-0.1,0.1-0.1,0.2-0.2
					c0,0,0.1-0.1,0.1-0.1c0.1-0.1,0.2-0.1,0.3-0.2c0,0,0,0,0,0c0.2-0.2,0.5-0.3,0.8-0.4c0,0,0,0,0,0c0.2-0.1,0.5-0.2,0.8-0.3
					c0.1,0,0.1,0,0.2,0c0.3-0.1,0.5-0.1,0.8-0.1c0.1,0,0.2,0,0.3,0c0,0,0.1,0,0.1,0c0,0,0.1,0,0.1,0c0.1,0,0.2,0,0.3,0
					c0.3,0,0.6,0.1,0.8,0.1c0.1,0,0.1,0,0.2,0c0.3,0.1,0.5,0.2,0.8,0.3c0,0,0,0,0,0c0.3,0.1,0.5,0.3,0.8,0.4c0,0,0,0,0,0
					c0.1,0.1,0.2,0.1,0.3,0.2c0,0,0.1,0.1,0.1,0.1c0.1,0.1,0.1,0.1,0.2,0.2c0,0,0.1,0.1,0.1,0.1c0.4,0.3,0.7,0.7,0.9,1.1
					c0,0,0,0.1,0.1,0.1c0.1,0.1,0.1,0.2,0.2,0.4c0,0,0,0.1,0,0.1c0.1,0.2,0.2,0.5,0.3,0.8c0,0.1,0.1,0.3,0.1,0.4
					c0,0.1,0,0.3,0.1,0.4c0,0,0,0.1,0,0.1c0,0,0,0.1,0,0.1C40.1,57,40.1,57.1,40.1,57.2z"/>
				<path id="XMLID_51_" class="st0" d="M29.5,56.7C29.5,56.7,29.5,56.7,29.5,56.7L29.5,56.7L29.5,56.7
					C29.5,56.7,29.5,56.7,29.5,56.7z M29.4,56.7C29.4,56.7,29.4,56.7,29.4,56.7C29.5,56.7,29.5,56.7,29.4,56.7
					C29.5,56.7,29.5,56.7,29.4,56.7C29.5,56.7,29.4,56.7,29.4,56.7z"/>
				<path id="XMLID_22_" class="st0" d="M29.4,56.7C29.4,56.7,29.5,56.7,29.4,56.7C29.5,56.7,29.5,56.7,29.4,56.7
					C29.4,56.7,29.4,56.7,29.4,56.7z"/>
				
					<ellipse id="XMLID_21_" transform="matrix(0.5508 -0.8346 0.8346 0.5508 -34.1047 50.1267)" class="st0" cx="29.5" cy="56.7" rx="0" ry="0"/>
			</g>
			<path id="body2" class="st0" d="M43.7,67.6v5.5c0,0.1-0.1,0.1-0.2,0.1H26.1c-0.1,0-0.2,0-0.2-0.1v-5.5c0-0.1,0-0.2,0-0.3
				c0.1-1.3,0.6-2.5,1.4-3.4c0,0,0.1-0.1,0.1-0.1c0.4-0.4,0.9-0.8,1.4-1c0,0,0.1,0,0.1,0c0.1-0.1,0.3-0.1,0.4-0.2c0,0,0.1,0,0.1,0
				c0.1,0,0.3-0.1,0.4-0.1c0.2,0.2,0.4,0.3,0.5,0.5c0.5,0.4,1,0.7,1.6,0.9c0.1,0,0.2,0.1,0.3,0.1c0.4,0.2,0.8,0.3,1.3,0.4
				c0.4,0.1,0.8,0.1,1.3,0.1c0.5,0,1-0.1,1.4-0.2c0.1,0,0.1,0,0.2,0h0c0.1,0,0.2,0,0.3,0c0,0,0,0,0,0c0.2,0,0.5-0.2,0.7-0.3
				c0.1,0,0.2-0.1,0.3-0.2c0.4-0.2,0.8-0.5,1.2-0.7h0c0,0,0.1,0,0.1-0.1c0.3-0.2,0.5-0.4,0.7-0.6c2.2,0.5,3.9,2.5,4,4.9
				C43.7,67.4,43.7,67.5,43.7,67.6z"/>
		</g>
		<g id="man1">
			<g id="head1">
				<path id="XMLID_19_" class="st0" d="M70.1,57.1c0,0.1,0,0.2,0,0.3c0,0.1,0,0.2,0,0.3c0,0.1,0,0.3-0.1,0.4c0,0.1-0.1,0.3-0.1,0.4
					c-0.1,0.3-0.2,0.5-0.3,0.8c0,0,0,0.1,0,0.1c-0.1,0.1-0.1,0.2-0.2,0.4c0,0,0,0.1-0.1,0.1c-0.2,0.4-0.6,0.8-0.9,1.1
					c0,0-0.1,0.1-0.1,0.1c-0.1,0.1-0.1,0.1-0.2,0.2c0,0-0.1,0.1-0.1,0.1c-0.1,0.1-0.2,0.1-0.3,0.2c0,0,0,0,0,0
					c-0.1,0.1-0.3,0.2-0.4,0.2c-0.1,0.1-0.2,0.1-0.4,0.2c0,0,0,0,0,0c-0.2,0.1-0.5,0.2-0.8,0.3c-0.1,0-0.1,0-0.2,0
					c-0.3,0.1-0.5,0.1-0.8,0.1c-0.1,0-0.2,0-0.3,0c0,0-0.1,0-0.1,0c0,0-0.1,0-0.1,0c-0.1,0-0.2,0-0.3,0c-0.3,0-0.6-0.1-0.8-0.1
					c-0.1,0-0.1,0-0.2,0c-0.3-0.1-0.5-0.2-0.8-0.3c0,0,0,0,0,0c-0.1-0.1-0.2-0.1-0.3-0.2c-0.1-0.1-0.3-0.2-0.4-0.3c0,0,0,0,0,0
					c-0.1-0.1-0.2-0.1-0.3-0.2c0,0-0.1-0.1-0.1-0.1c-0.1-0.1-0.1-0.1-0.2-0.2c-0.1-0.1-0.1-0.1-0.2-0.2c-0.3-0.3-0.6-0.7-0.8-1
					c0,0,0-0.1-0.1-0.1c-0.1-0.1-0.1-0.2-0.2-0.4c0,0,0-0.1,0-0.1c-0.1-0.2-0.2-0.5-0.3-0.8c0-0.1-0.1-0.3-0.1-0.4
					c0-0.1,0-0.3-0.1-0.4c0-0.1,0-0.2,0-0.3c0-0.1,0-0.2,0-0.3s0-0.2,0-0.3c0-0.1,0-0.1,0-0.2v0c0,0,0-0.1,0-0.1c0,0,0-0.1,0-0.1
					c0-0.1,0-0.2,0.1-0.3c0-0.1,0.1-0.3,0.1-0.4c0.1-0.3,0.2-0.5,0.3-0.8c0,0,0,0,0-0.1c0,0,0,0,0-0.1c0.1-0.1,0.1-0.2,0.2-0.4
					c0,0,0-0.1,0.1-0.1c0.2-0.4,0.6-0.8,0.9-1.1c0,0,0.1-0.1,0.1-0.1c0.1-0.1,0.1-0.1,0.2-0.2c0,0,0.1-0.1,0.1-0.1
					c0.1-0.1,0.2-0.1,0.3-0.2c0,0,0,0,0,0c0.2-0.2,0.5-0.3,0.8-0.4c0,0,0,0,0,0c0.2-0.1,0.5-0.2,0.8-0.3c0.1,0,0.1,0,0.2,0
					c0.3-0.1,0.5-0.1,0.8-0.1c0.1,0,0.2,0,0.3,0c0,0,0.1,0,0.1,0c0,0,0.1,0,0.1,0c0.1,0,0.2,0,0.3,0c0.3,0,0.6,0.1,0.8,0.1
					c0.1,0,0.1,0,0.2,0c0.3,0.1,0.5,0.2,0.8,0.3c0,0,0,0,0,0c0.3,0.1,0.5,0.3,0.8,0.4c0,0,0,0,0,0c0.1,0.1,0.2,0.1,0.3,0.2
					c0,0,0.1,0.1,0.1,0.1c0.1,0.1,0.1,0.1,0.2,0.2c0,0,0.1,0.1,0.1,0.1c0.4,0.3,0.7,0.7,0.9,1.1c0,0,0,0.1,0.1,0.1
					c0.1,0.1,0.1,0.2,0.2,0.4c0,0,0,0.1,0,0.1c0.1,0.2,0.2,0.5,0.3,0.8c0,0.1,0.1,0.3,0.1,0.4c0,0.1,0,0.3,0.1,0.4c0,0,0,0.1,0,0.1
					c0,0,0,0.1,0,0.1C70.1,56.9,70.1,57,70.1,57.1z"/>
				<path id="XMLID_42_" class="st0" d="M59.5,56.7C59.5,56.7,59.5,56.7,59.5,56.7L59.5,56.7L59.5,56.7
					C59.5,56.7,59.5,56.7,59.5,56.7z M59.4,56.6C59.4,56.6,59.4,56.6,59.4,56.6C59.4,56.6,59.4,56.6,59.4,56.6
					C59.5,56.7,59.5,56.6,59.4,56.6C59.4,56.6,59.4,56.6,59.4,56.6z"/>
				<path id="XMLID_16_" class="st0" d="M59.4,56.6C59.4,56.6,59.4,56.6,59.4,56.6C59.4,56.6,59.4,56.6,59.4,56.6
					C59.4,56.6,59.4,56.6,59.4,56.6z"/>
				
					<ellipse id="XMLID_15_" transform="matrix(0.5586 -0.8294 0.8294 0.5586 -20.7446 74.3359)" class="st0" cx="59.5" cy="56.7" rx="0" ry="0"/>
			</g>
			<path id="body1" class="st0" d="M73.6,67.5V73c0,0.1,0,0.2-0.1,0.2H56.1c-0.1,0-0.2-0.1-0.2-0.2v-5.5c0-0.1,0-0.2,0-0.3
				c0.1-1.3,0.6-2.5,1.4-3.4c0,0,0-0.1,0.1-0.1c0.4-0.4,0.9-0.8,1.4-1c0,0,0.1,0,0.1,0c0.1-0.1,0.3-0.1,0.4-0.2c0,0,0.1,0,0.1,0
				c0.1,0,0.3-0.1,0.4-0.1c0.2,0.2,0.4,0.3,0.5,0.5c0.5,0.4,1,0.7,1.6,0.9c0.1,0,0.2,0.1,0.3,0.1c0.4,0.2,0.8,0.3,1.3,0.4
				c0.4,0.1,0.8,0.1,1.3,0.1c0.5,0,1-0.1,1.4-0.2c0.1,0,0.1-0.1,0.2-0.1h0c0.1,0,0.2,0,0.3,0h0c0.2,0,0.5-0.1,0.7-0.2
				c0.1,0,0.2-0.1,0.3-0.1c0.4-0.2,0.8-0.4,1.2-0.7h0c0,0,0.1-0.1,0.1-0.1c0.3-0.2,0.5-0.4,0.7-0.6c2.2,0.5,3.8,2.5,3.9,4.9
				C73.6,67.3,73.6,67.4,73.6,67.5z"/>
		</g>
		<path id="share3-rect" class="st0" d="M49.7,49.5L49.7,49.5c-0.6,0-1,0.5-1,1v7.1c0,0.6,0.5,1,1,1h0c0.6,0,1-0.5,1-1v-7.1
			C50.8,49.9,50.3,49.5,49.7,49.5z"/>
		<path id="share2-rect" class="st0" d="M48.9,56.9L48.9,56.9c-0.4,0.5-0.3,1.1,0.2,1.5l5.5,4.4c0.5,0.4,1.1,0.3,1.5-0.2l0,0
			c0.4-0.5,0.3-1.1-0.2-1.5l-5.5-4.4C49.9,56.4,49.3,56.4,48.9,56.9z"/>
		<path id="share1-rect" class="st0" d="M43,62.6L43,62.6c-0.4-0.5-0.3-1.1,0.2-1.5l5.5-4.4c0.5-0.4,1.1-0.3,1.5,0.2l0,0
			c0.4,0.5,0.3,1.1-0.2,1.5l-5.5,4.4C44,63.1,43.4,63,43,62.6z"/>
	</g>
</g>
</svg>
