<?xml version="1.0" encoding="utf-8"?>
<!-- Generator: Adobe Illustrator 21.1.0, SVG Export Plug-In . SVG Version: 6.00 Build 0)  -->
<svg version="1.1" xmlns="http://www.w3.org/2000/svg" xmlns:xlink="http://www.w3.org/1999/xlink" x="0px" y="0px"
	 viewBox="0 0 100 100" style="enable-background:new 0 0 100 100;" xml:space="preserve">
<style type="text/css">
	.st0{fill:#FFFFFF;}
</style>
<g id="detail">
	<circle id="black-border" cx="50" cy="50" r="50"/>
	<circle id="white-border" class="st0" cx="50" cy="50" r="47.5"/>
</g>
<g id="icon">
	<circle id="background" cx="50" cy="50" r="40"/>
	<g id="text-rect">
		<path id="mian-rect" class="st0" d="M48.9,42.7l0-15.2h17.6v45.4H33.6V42.7L48.9,42.7z M31.3,41.9v30.9v2.3h2.3h32.8h2.3v-2.3
			V27.5v-2.3h-2.3H48.2L31.3,41.9z"/>
		
			<rect id="rect1" x="36.9" y="49.5" transform="matrix(-1 -1.224647e-16 1.224647e-16 -1 99.1749 101.033)" class="st0" width="25.3" height="2"/>
		
			<rect id="rect2" x="36.9" y="56.5" transform="matrix(-1 -1.224647e-16 1.224647e-16 -1 99.1749 115.0594)" class="st0" width="25.3" height="2"/>
		
			<rect id="rect3" x="36.9" y="63.5" transform="matrix(-1 -1.224647e-16 1.224647e-16 -1 99.1749 129.0859)" class="st0" width="25.3" height="2"/>
	</g>
</g>
</svg>
