<?xml version="1.0" encoding="utf-8"?>
<!-- Generator: Adobe Illustrator 21.1.0, SVG Export Plug-In . SVG Version: 6.00 Build 0)  -->
<svg version="1.1" id="folder_icon" class="mainIcon" xmlns="http://www.w3.org/2000/svg" xmlns:xlink="http://www.w3.org/1999/xlink" x="0px" y="0px"
	 viewBox="0 0 100 100" style="enable-background:new 0 0 100 100;" xml:space="preserve">
<style type="text/css">
	.st0{fill:#FFFFFF;}

	#background_1_ {
		display: block;
	}

	@media screen and (max-width: 200px) {

		#background_1_ {
			display: none;
		}

	}
</style>
<g id="background_1_">
	<circle id="border-black" cx="50" cy="50" r="50"/>
	<circle id="border-white" class="st0" cx="50" cy="50" r="47.5"/>
</g>
<g id="icon">
	<circle id="background" cx="50" cy="50" r="40"/>
	<path id="file_icon" class="st0" d="M70.8,38.9c0-0.8,0-1.6,0-2.5c0-1.9-1-3-2.9-3.2c-0.4,0-0.8,0-1.1,0c-7.7,0-15.4,0-23.1,0
		c-0.8,0-1.4-0.2-1.7-1c-1.1-2.3-2.8-3.2-5.4-3c-2.5,0.2-5,0.1-7.5,0c-1.7,0-3,0.5-3.7,2.1c0,12.6,0,25.2,0,37.8
		c0.9,1.6,2.4,1.9,4.2,1.9c11.9,0,23.8,0,35.7,0c2.3,0,3.2-0.9,3.6-3.2c1.1-6.3,2.3-12.6,3.5-18.9c0.3-1.8,0.7-3.7,1.1-5.5
		c0-0.1,0-0.2,0.2-0.4c0-0.7,0-1.4,0-2.1C72.5,39.4,72.5,39.4,70.8,38.9z M27.3,32.9c0-1.3,0.2-1.5,1.5-1.6c3.1,0,6.2,0,9.3,0
		c0.4,0,0.9,0.3,1.2,0.6c0.5,0.5,0.8,1.1,1.1,1.7c0.7,1.1,1.6,1.5,2.9,1.5c7.9,0,15.8,0,23.6,0c1.6,0,1.7,0.1,1.7,1.7
		c0,0.7,0,1.4,0,2.1c-0.6,0-1,0-1.4,0c-11.3,0-22.6,0-33.9,0c-2.1,0-3,0.8-3.4,2.8c-0.8,4.6-1.7,9.2-2.7,13.8c0-0.3-0.1-0.5-0.1-0.8
		C27.3,47.5,27.3,40.2,27.3,32.9z"/>
</g>
</svg>
