<?xml version="1.0" encoding="utf-8"?>
<!-- Generator: Adobe Illustrator 21.1.0, SVG Export Plug-In . SVG Version: 6.00 Build 0)  -->
<svg version="1.1" xmlns="http://www.w3.org/2000/svg" xmlns:xlink="http://www.w3.org/1999/xlink" x="0px" y="0px"
	 viewBox="0 0 100 100" style="enable-background:new 0 0 100 100;" xml:space="preserve">
<style type="text/css">
	.st0{fill:#FFFFFF;}
</style>
<g id="details">
	<circle id="black-border" cx="50" cy="50" r="50"/>
	<circle id="white-border" class="st0" cx="50" cy="50" r="47.5"/>
</g>
<g id="icon">
	<circle id="background" cx="50" cy="50" r="40"/>
	<path id="heart" class="st0" d="M73.6,43.4c0-8.1-6.3-14.5-13.9-14.5c-4.1,0-7.8,1.9-10.3,4.9c-2.5-3-6.2-4.9-10.4-4.8
		c-7.6,0-13.8,6.6-13.7,14.7c0,2.2,0.5,4.2,1.3,6.1c4,13.7,22.7,21.5,22.7,21.5C63,66.8,69.1,56.7,71.4,51.4
		C72.8,49.1,73.6,46.4,73.6,43.4z"/>
</g>
</svg>
