<?xml version="1.0" encoding="utf-8"?>
<!-- Generator: Adobe Illustrator 21.1.0, SVG Export Plug-In . SVG Version: 6.00 Build 0)  -->
<svg version="1.1" xmlns="http://www.w3.org/2000/svg" xmlns:xlink="http://www.w3.org/1999/xlink" x="0px" y="0px"
	 viewBox="0 0 100 100" style="enable-background:new 0 0 100 100;" xml:space="preserve">
<style type="text/css">
	.st0{fill:#FFFFFF;}
</style>
<g id="Layer_1">
	<circle id="black-border" cx="50" cy="50" r="50"/>
	<circle id="white_border" class="st0" cx="50" cy="50" r="47.5"/>
</g>
<g id="icon">
	<circle id="background" cx="50" cy="50" r="40"/>
	<path id="music" class="st0" d="M68.3,25.3c1.5-0.4,3,0.8,3,2.4c0,10.3,0,20.6,0,30.9c0,2-0.7,3.7-2.2,5.1
		c-1.8,1.6-3.9,2.4-6.3,2.5c-2.7,0.1-5.2-0.6-7.2-2.4c-2.9-2.5-3.1-6.6-0.3-9.3c2.3-2.3,5.2-3,8.3-2.7c0,0,0,0,0,0
		c1.4,0.1,2.7-1,2.7-2.4V34.7c-0.1,0-0.1,0-0.1,0c-6.5,1.6-13.1,3.1-19.6,4.7C46.1,39.4,46,39.6,46,40c0,9.3,0,18.5,0,27.8
		c0,0.7-0.1,1.5-0.4,2.1c-0.8,2.3-2.6,3.7-4.9,4.6c-0.9,0.3-1.9,0.5-2.8,0.7c-0.2,0-0.3,0.1-0.5,0.1h-1c-0.2,0-0.4,0-0.5-0.1
		c-0.1,0-0.1,0-0.2,0c-2.2-0.2-4.1-1-5.7-2.5c-2.6-2.3-2.9-6-0.7-8.6c2.3-2.7,5.3-3.5,8.6-3.2c0.1,0,0.1,0,0.2,0
		c1.4,0.2,2.7-0.9,2.7-2.4V37.4c0-3.3,2.2-6.1,5.4-6.9c0.1,0,0.2-0.1,0.4-0.1c7-1.7,13.9-3.3,20.9-5C67.9,25.4,68.1,25.4,68.3,25.3z
		"/>
</g>
</svg>
