<?xml version="1.0" encoding="utf-8"?>
<!-- Generator: Adobe Illustrator 21.1.0, SVG Export Plug-In . SVG Version: 6.00 Build 0)  -->
<svg version="1.1" id="phone_icon" class="mainIcon" xmlns="http://www.w3.org/2000/svg" xmlns:xlink="http://www.w3.org/1999/xlink" x="0px" y="0px"
	 viewBox="0 0 100 100" style="enable-background:new 0 0 100 100;" xml:space="preserve">
<style type="text/css">
	.st0{fill:#FFFFFF;}
	
	#detail {
		display: block;
	}

	@media screen and (max-width: 200px) {

		#detail {
			display: none;
		}

	}
	

</style>
<g id="detail">
	<circle id="border-black" cx="50" cy="50" r="50"/>
	<circle id="border-white" class="st0" cx="50" cy="50" r="47.5"/>
</g>
<g id="icon">
	<circle id="background" cx="50" cy="50" r="40"/>
	<path id="phone-shape" class="st0" d="M41.9,24.9c1.4,0.5,1.9,1.7,2.2,3c0.6,2.6,1.2,5.2,1.7,7.8c0.1,0.4,0.1,0.8,0.1,1.2
		c0,1.2-0.6,2.1-1.7,2.5c-0.8,0.3-1.7,0.6-2.5,0.8c-0.8,0.2-1.3,0.8-1.5,1.6C40,42.9,40,44,40.4,45c2,5.9,5.5,10.8,10.2,14.8
		c1,0.8,2,1.5,3.1,2.2c0.7,0.4,1.5,0.5,2.3,0.4c0.6-0.1,1.1-0.3,1.4-0.8c0.5-0.7,0.9-1.3,1.4-2c0.9-1.4,2-1.7,3.6-1.1
		c0.8,0.4,1.6,0.8,2.4,1.2c1.5,0.8,3,1.6,4.5,2.5c0.4,0.2,0.8,0.4,1.1,0.7c1,0.7,1.8,1.5,1.9,2.8c0,0.3-0.1,0.7-0.1,1
		c-0.3,0.8-0.6,1.5-1,2.3c-1.8,3.2-4.4,5.1-8,5.6c-0.7,0.1-1.5,0.1-2.2,0.1c-0.6-0.1-1.1-0.2-1.7-0.2c-0.7-0.2-1.4-0.4-2-0.6
		c-3.3-1.2-6.2-3.2-8.8-5.6c-3.1-2.8-5.9-6-8.4-9.3c-3.1-4.1-5.9-8.4-7.9-13.1c-1.1-2.6-2-5.3-2.2-8.2c-0.1-0.8,0-1.7-0.1-2.5
		c0.1-0.6,0.2-1.1,0.2-1.7c0-0.1,0.1-0.2,0.1-0.4c1.1-4.2,3.9-6.7,8-7.8c0.9-0.2,1.8-0.3,2.8-0.4C41.2,24.9,41.6,24.9,41.9,24.9z"/>
</g>
</svg>
