<?xml version="1.0" encoding="utf-8"?>
<!-- Generator: Adobe Illustrator 21.1.0, SVG Export Plug-In . SVG Version: 6.00 Build 0)  -->
<svg version="1.1" id="search_icon" class="mainIcon" xmlns="http://www.w3.org/2000/svg" xmlns:xlink="http://www.w3.org/1999/xlink" x="0px" y="0px"
	 viewBox="0 0 100 100" style="enable-background:new 0 0 100 100;" xml:space="preserve">
<style type="text/css">
	.st0{fill:#FFFFFF;}

	
	#detail {
		display: block;
	}

	@media screen and (max-width: 200px) {

		#detail {
			display: none;
		}

	}
	

</style>
<g id="detail">
	<circle id="black-border" cx="50" cy="50" r="50"/>
	<circle id="white-border" class="st0" cx="50" cy="50" r="47.5"/>
</g>
<g id="icon">
	<circle id="background" cx="50" cy="50" r="40"/>
	<g id="search">
		<path id="handle" class="st0" d="M72.8,66.6L61.5,55.3c-1.7,2.6-3.9,4.8-6.5,6.5l11.3,11.3c1.8,1.8,4.7,1.8,6.5,0
			C74.6,71.3,74.6,68.4,72.8,66.6z"/>
		<path id="sphere" class="st0" d="M61.8,43.7c0-10.2-8.3-18.4-18.4-18.4c-10.2,0-18.4,8.3-18.4,18.4c0,10.2,8.3,18.4,18.4,18.4
			C53.6,62.1,61.8,53.9,61.8,43.7z M43.4,57.5c-7.6,0-13.8-6.2-13.8-13.8c0-7.6,6.2-13.8,13.8-13.8c7.6,0,13.8,6.2,13.8,13.8
			C57.2,51.3,51,57.5,43.4,57.5z"/>
		<path id="shine" class="st0" d="M32.6,43.7h3.1c0-4.2,3.4-7.7,7.7-7.7v-3.1C37.5,32.9,32.6,37.8,32.6,43.7z"/>
	</g>
</g>
</svg>
