<?xml version="1.0" encoding="utf-8"?>
<!-- Generator: Adobe Illustrator 21.1.0, SVG Export Plug-In . SVG Version: 6.00 Build 0)  -->
<svg version="1.1" xmlns="http://www.w3.org/2000/svg" xmlns:xlink="http://www.w3.org/1999/xlink" x="0px" y="0px"
	 viewBox="0 0 100 100" style="enable-background:new 0 0 100 100;" xml:space="preserve">
<style type="text/css">
	.st0{fill:#FFFFFF;}
</style>
<g id="detail">
	<circle id="XMLID_3_" cx="50" cy="50" r="50"/>
	<circle id="XMLID_4_" class="st0" cx="50" cy="50" r="47.5"/>
</g>
<g id="icon">
	<circle id="XMLID_5_" cx="50" cy="50" r="40"/>
	<path id="share" class="st0" d="M62.6,58.6c-1.9,0-3.6,0.6-5,1.7l-14.2-8.5c0.1-0.4,0.1-0.9,0.1-1.3c0-0.5,0-0.9-0.1-1.3l14.2-8.5
		c1.4,1.1,3.1,1.7,5,1.7c4.5,0,8.1-3.6,8.1-8.1s-3.6-8.1-8.1-8.1c-4.5,0-8.1,3.6-8.1,8.1c0,0.5,0,0.9,0.1,1.3L40.4,44
		c-1.4-1.1-3.1-1.7-5-1.7c-4.5,0-8.1,3.6-8.1,8.1s3.6,8.1,8.1,8.1c1.9,0,3.6-0.6,5-1.7l14.2,8.5c-0.1,0.4-0.1,0.9-0.1,1.3
		c0,4.5,3.6,8.1,8.1,8.1c4.5,0,8.1-3.6,8.1-8.1C70.8,62.3,67.1,58.6,62.6,58.6z"/>
</g>
</svg>
