<?xml version="1.0" encoding="utf-8"?>
<!-- Generator: Adobe Illustrator 21.1.0, SVG Export Plug-In . SVG Version: 6.00 Build 0)  -->
<svg version="1.1" xmlns="http://www.w3.org/2000/svg" xmlns:xlink="http://www.w3.org/1999/xlink" x="0px" y="0px"
	 viewBox="0 0 100 100" style="enable-background:new 0 0 100 100;" xml:space="preserve">
<style type="text/css">
	.st0{fill:#FFFFFF;}
</style>
<g id="detail">
	<circle id="border-black" cx="50" cy="50" r="50"/>
	<circle id="border-white" class="st0" cx="50" cy="50" r="47.5"/>
</g>
<g id="icon">
	<circle id="background" cx="50" cy="50" r="40"/>
	<path id="shield" class="st0" d="M70.2,35c0-0.5-0.2-0.7-0.6-0.8c-7-1.6-13.3-4.7-19.1-8.9c-0.2-0.1-0.4-0.2-0.5-0.2l0,0l0,0
		c-0.2,0-0.3,0.1-0.5,0.2c-2,1.3-4,2.7-6.1,3.9c-4.2,2.4-8.7,4.2-13.4,5.2c-0.3,0.1-0.6,0.2-0.6,0.6c-0.1,3.9,0.1,7.7,0.9,11.5
		c0.4,1.7,0.8,3.3,1.3,4.9h0l0,0c1.8,5.4,4.6,10.3,8.3,14.8c2.9,3.4,6.1,6.4,9.8,8.9l0,0C55.8,71,60.8,65.6,64.5,59
		c1.4-2.4,2.5-4.9,3.4-7.5h0C69.7,46.3,70.4,40.8,70.2,35z"/>
</g>
</svg>
